<svg width="56" height="56" viewBox="0 0 56 56" fill="none" xmlns="http://www.w3.org/2000/svg">
<path d="M41.875 3.74053C46.1189 6.19075 49.6431 9.71492 52.0933 13.9588C54.5435 18.2027 55.8334 23.0168 55.8333 27.9173C55.8333 32.8177 54.5433 37.6318 52.0931 41.8756C49.6428 46.1195 46.1186 49.6436 41.8747 52.0938C37.6308 54.544 32.8167 55.8338 27.9162 55.8337C23.0158 55.8337 18.2017 54.5436 13.9579 52.0934C9.71402 49.6431 6.18993 46.1188 3.73981 41.8749C1.28969 37.6309 -0.00012448 32.8168 9.01052e-09 27.9164L0.0139587 27.0119C0.170301 22.1906 1.57324 17.4922 4.08599 13.3746C6.59875 9.25694 10.1356 5.86067 14.3517 3.51687C18.5677 1.17307 23.3192 -0.0382759 28.1428 0.000921936C32.9664 0.0401198 37.6976 1.32853 41.875 3.74053ZM27.9167 11.1664C27.1763 11.1664 26.4662 11.4605 25.9427 11.984C25.4191 12.5076 25.125 13.2176 25.125 13.958C22.9038 13.958 20.7736 14.8404 19.203 16.411C17.6324 17.9816 16.75 20.1118 16.75 22.333C16.75 24.5542 17.6324 26.6844 19.203 28.2551C20.7736 29.8257 22.9038 30.708 25.125 30.708V36.2914C24.662 36.317 24.1998 36.2292 23.7785 36.0356C23.3571 35.8419 22.9895 35.5483 22.7074 35.1803L22.5176 34.8983C22.1356 34.2823 21.5291 33.8391 20.8262 33.6622C20.1233 33.4853 19.3792 33.5888 18.7512 33.9506C18.1233 34.3125 17.6606 34.9044 17.4611 35.6012C17.2617 36.298 17.341 37.0451 17.6824 37.6844C18.395 38.9202 19.4113 39.9535 20.6352 40.6863C21.859 41.4191 23.2498 41.8272 24.6755 41.8719H25.125C25.1244 42.5562 25.3751 43.2168 25.8296 43.7284C26.284 44.2399 26.9105 44.5668 27.59 44.6468L27.9167 44.6664C28.6571 44.6664 29.3671 44.3722 29.8907 43.8487C30.4142 43.3252 30.7083 42.6151 30.7083 41.8747L31.1997 41.8607C33.3761 41.7349 35.4176 40.7655 36.8906 39.1583C38.3635 37.5512 39.1518 35.433 39.0878 33.2539C39.0238 31.0748 38.1127 29.0066 36.548 27.4886C34.9833 25.9706 32.8884 25.1226 30.7083 25.1247V19.5414C31.7077 19.5079 32.5815 19.9322 33.1259 20.6524L33.3157 20.9344C33.6977 21.5504 34.3042 21.9937 35.0071 22.1705C35.71 22.3474 36.4541 22.2439 37.0821 21.8821C37.7101 21.5202 38.1727 20.9283 38.3722 20.2315C38.5716 19.5347 38.4923 18.7877 38.1509 18.1483C37.4387 16.912 36.4225 15.8782 35.1986 15.1448C33.9748 14.4115 32.5838 14.003 31.1578 13.958H30.7083C30.7083 13.2176 30.4142 12.5076 29.8907 11.984C29.3671 11.4605 28.6571 11.1664 27.9167 11.1664ZM30.7083 30.708C31.4487 30.708 32.1588 31.0022 32.6823 31.5257C33.2059 32.0492 33.5 32.7593 33.5 33.4997C33.5 34.2401 33.2059 34.9502 32.6823 35.4737C32.1588 35.9972 31.4487 36.2914 30.7083 36.2914V30.708ZM25.125 19.5414V25.1247C24.3846 25.1247 23.6745 24.8306 23.151 24.307C22.6275 23.7835 22.3333 23.0734 22.3333 22.333C22.3333 21.5926 22.6275 20.8826 23.151 20.359C23.6745 19.8355 24.3846 19.5414 25.125 19.5414Z" fill="black"/>
</svg>
