<svg width="533" height="322" viewBox="0 0 533 322" fill="none" xmlns="http://www.w3.org/2000/svg">
<g filter="url(#filter0_d_398_20)">
<mask id="path-1-outside-1_398_20" maskUnits="userSpaceOnUse" x="71" y="40" width="382" height="242" fill="black">
<rect fill="white" x="71" y="40" width="382" height="242"/>
<path d="M100.25 121.25V112.5H91.5V103.75H109V112.5H135.25V95H100.25V86.25H91.5V68.75H100.25V60H144V68.75H152.75V77.5H135.25V68.75H109V86.25H144V95H152.75V112.5H144V121.25H100.25ZM161.5 121.25V60H214V68.75H222.75V95H214V103.75H179V121.25H161.5ZM179 95H205.25V68.75H179V95ZM231.5 121.25V60H292.75V68.75H249V86.25H284V95H249V112.5H292.75V121.25H231.5ZM310.25 121.25V60H327.75V112.5H362.75V121.25H310.25ZM380.25 121.25V60H397.75V112.5H432.75V121.25H380.25ZM240.25 191.25V173.75H249V165H240.25V156.25H231.5V147.5H257.75V130H266.5V147.5H292.75V156.25H284V165H275.25V173.75H284V191.25H275.25V182.5H266.5V173.75H257.75V182.5H249V191.25H240.25ZM100.25 261.25V252.5H91.5V243.75H109V252.5H135.25V235H100.25V226.25H91.5V208.75H100.25V200H144V208.75H152.75V217.5H135.25V208.75H109V226.25H144V235H152.75V252.5H144V261.25H100.25ZM161.5 261.25V200H214V208.75H222.75V235H214V243.75H179V261.25H161.5ZM179 235H205.25V208.75H179V235ZM231.5 261.25V200H292.75V208.75H249V226.25H284V235H249V252.5H292.75V261.25H231.5ZM310.25 261.25V200H327.75V252.5H362.75V261.25H310.25ZM380.25 261.25V200H397.75V252.5H432.75V261.25H380.25Z"/>
</mask>
<path d="M100.25 121.25V112.5H91.5V103.75H109V112.5H135.25V95H100.25V86.25H91.5V68.75H100.25V60H144V68.75H152.75V77.5H135.25V68.75H109V86.25H144V95H152.75V112.5H144V121.25H100.25ZM161.5 121.25V60H214V68.75H222.75V95H214V103.75H179V121.25H161.5ZM179 95H205.25V68.75H179V95ZM231.5 121.25V60H292.75V68.75H249V86.25H284V95H249V112.5H292.75V121.25H231.5ZM310.25 121.25V60H327.75V112.5H362.75V121.25H310.25ZM380.25 121.25V60H397.75V112.5H432.75V121.25H380.25ZM240.25 191.25V173.75H249V165H240.25V156.25H231.5V147.5H257.75V130H266.5V147.5H292.75V156.25H284V165H275.25V173.75H284V191.25H275.25V182.5H266.5V173.75H257.75V182.5H249V191.25H240.25ZM100.25 261.25V252.5H91.5V243.75H109V252.5H135.25V235H100.25V226.25H91.5V208.75H100.25V200H144V208.75H152.75V217.5H135.25V208.75H109V226.25H144V235H152.75V252.5H144V261.25H100.25ZM161.5 261.25V200H214V208.75H222.75V235H214V243.75H179V261.25H161.5ZM179 235H205.25V208.75H179V235ZM231.5 261.25V200H292.75V208.75H249V226.25H284V235H249V252.5H292.75V261.25H231.5ZM310.25 261.25V200H327.75V252.5H362.75V261.25H310.25ZM380.25 261.25V200H397.75V252.5H432.75V261.25H380.25Z" fill="#E8E9CD"/>
<path d="M100.25 121.25H80.25V141.25H100.25V121.25ZM100.25 112.5H120.25V92.5H100.25V112.5ZM91.5 112.5H71.5V132.5H91.5V112.5ZM91.5 103.75V83.75H71.5V103.75H91.5ZM109 103.75H129V83.75H109V103.75ZM109 112.5H89V132.5H109V112.5ZM135.25 112.5V132.5H155.25V112.5H135.25ZM135.25 95H155.25V75H135.25V95ZM100.25 95H80.25V115H100.25V95ZM100.25 86.25H120.25V66.25H100.25V86.25ZM91.5 86.25H71.5V106.25H91.5V86.25ZM91.5 68.75V48.75H71.5V68.75H91.5ZM100.25 68.75V88.75H120.25V68.75H100.25ZM100.25 60V40H80.25V60H100.25ZM144 60H164V40H144V60ZM144 68.75H124V88.75H144V68.75ZM152.75 68.75H172.75V48.75H152.75V68.75ZM152.75 77.5V97.5H172.75V77.5H152.75ZM135.25 77.5H115.25V97.5H135.25V77.5ZM135.25 68.75H155.25V48.75H135.25V68.75ZM109 68.75V48.75H89V68.75H109ZM109 86.25H89V106.25H109V86.25ZM144 86.25H164V66.25H144V86.25ZM144 95H124V115H144V95ZM152.75 95H172.75V75H152.75V95ZM152.75 112.5V132.5H172.75V112.5H152.75ZM144 112.5V92.5H124V112.5H144ZM144 121.25V141.25H164V121.25H144ZM100.25 121.25H120.25V112.5H100.25H80.25V121.25H100.25ZM100.25 112.5V92.5H91.5V112.5V132.5H100.25V112.5ZM91.5 112.5H111.5V103.75H91.5H71.5V112.5H91.5ZM91.5 103.75V123.75H109V103.75V83.75H91.5V103.75ZM109 103.75H89V112.5H109H129V103.75H109ZM109 112.5V132.5H135.25V112.5V92.5H109V112.5ZM135.25 112.5H155.25V95H135.25H115.25V112.5H135.25ZM135.25 95V75H100.25V95V115H135.25V95ZM100.25 95H120.25V86.25H100.25H80.25V95H100.25ZM100.25 86.25V66.25H91.5V86.25V106.25H100.25V86.25ZM91.5 86.25H111.5V68.75H91.5H71.5V86.25H91.5ZM91.5 68.75V88.75H100.25V68.75V48.75H91.5V68.75ZM100.25 68.75H120.25V60H100.25H80.25V68.75H100.25ZM100.25 60V80H144V60V40H100.25V60ZM144 60H124V68.75H144H164V60H144ZM144 68.75V88.75H152.75V68.75V48.75H144V68.75ZM152.75 68.75H132.75V77.5H152.75H172.75V68.75H152.75ZM152.75 77.5V57.5H135.25V77.5V97.5H152.75V77.5ZM135.25 77.5H155.25V68.75H135.25H115.25V77.5H135.25ZM135.25 68.75V48.75H109V68.75V88.75H135.25V68.75ZM109 68.75H89V86.25H109H129V68.75H109ZM109 86.25V106.25H144V86.25V66.25H109V86.25ZM144 86.25H124V95H144H164V86.25H144ZM144 95V115H152.75V95V75H144V95ZM152.75 95H132.75V112.5H152.75H172.75V95H152.75ZM152.75 112.5V92.5H144V112.5V132.5H152.75V112.5ZM144 112.5H124V121.25H144H164V112.5H144ZM144 121.25V101.25H100.25V121.25V141.25H144V121.25ZM161.5 121.25H141.5V141.25H161.5V121.25ZM161.5 60V40H141.5V60H161.5ZM214 60H234V40H214V60ZM214 68.75H194V88.75H214V68.75ZM222.75 68.75H242.75V48.75H222.75V68.75ZM222.75 95V115H242.75V95H222.75ZM214 95V75H194V95H214ZM214 103.75V123.75H234V103.75H214ZM179 103.75V83.75H159V103.75H179ZM179 121.25V141.25H199V121.25H179ZM179 95H159V115H179V95ZM205.25 95V115H225.25V95H205.25ZM205.25 68.75H225.25V48.75H205.25V68.75ZM179 68.75V48.75H159V68.75H179ZM161.5 121.25H181.5V60H161.5H141.5V121.25H161.5ZM161.5 60V80H214V60V40H161.5V60ZM214 60H194V68.75H214H234V60H214ZM214 68.75V88.75H222.75V68.75V48.75H214V68.75ZM222.75 68.75H202.75V95H222.75H242.75V68.75H222.75ZM222.75 95V75H214V95V115H222.75V95ZM214 95H194V103.75H214H234V95H214ZM214 103.75V83.75H179V103.75V123.75H214V103.75ZM179 103.75H159V121.25H179H199V103.75H179ZM179 121.25V101.25H161.5V121.25V141.25H179V121.25ZM179 95V115H205.25V95V75H179V95ZM205.25 95H225.25V68.75H205.25H185.25V95H205.25ZM205.25 68.75V48.75H179V68.75V88.75H205.25V68.75ZM179 68.75H159V95H179H199V68.75H179ZM231.5 121.25H211.5V141.25H231.5V121.25ZM231.5 60V40H211.5V60H231.5ZM292.75 60H312.75V40H292.75V60ZM292.75 68.75V88.75H312.75V68.75H292.75ZM249 68.75V48.75H229V68.75H249ZM249 86.25H229V106.25H249V86.25ZM284 86.25H304V66.25H284V86.25ZM284 95V115H304V95H284ZM249 95V75H229V95H249ZM249 112.5H229V132.5H249V112.5ZM292.75 112.5H312.75V92.5H292.75V112.5ZM292.75 121.25V141.25H312.75V121.25H292.75ZM231.5 121.25H251.5V60H231.5H211.5V121.25H231.5ZM231.5 60V80H292.75V60V40H231.5V60ZM292.75 60H272.75V68.75H292.75H312.75V60H292.75ZM292.75 68.75V48.75H249V68.75V88.75H292.75V68.75ZM249 68.75H229V86.25H249H269V68.75H249ZM249 86.25V106.25H284V86.25V66.25H249V86.25ZM284 86.25H264V95H284H304V86.25H284ZM284 95V75H249V95V115H284V95ZM249 95H229V112.5H249H269V95H249ZM249 112.5V132.5H292.75V112.5V92.5H249V112.5ZM292.75 112.5H272.75V121.25H292.75H312.75V112.5H292.75ZM292.75 121.25V101.25H231.5V121.25V141.25H292.75V121.25ZM310.25 121.25H290.25V141.25H310.25V121.25ZM310.25 60V40H290.25V60H310.25ZM327.75 60H347.75V40H327.75V60ZM327.75 112.5H307.75V132.5H327.75V112.5ZM362.75 112.5H382.75V92.5H362.75V112.5ZM362.75 121.25V141.25H382.75V121.25H362.75ZM310.25 121.25H330.25V60H310.25H290.25V121.25H310.25ZM310.25 60V80H327.75V60V40H310.25V60ZM327.75 60H307.75V112.5H327.75H347.75V60H327.75ZM327.75 112.5V132.5H362.75V112.5V92.5H327.75V112.5ZM362.75 112.5H342.75V121.25H362.75H382.75V112.5H362.75ZM362.75 121.25V101.25H310.25V121.25V141.25H362.75V121.25ZM380.25 121.25H360.25V141.25H380.25V121.25ZM380.25 60V40H360.25V60H380.25ZM397.75 60H417.75V40H397.75V60ZM397.75 112.5H377.75V132.5H397.75V112.5ZM432.75 112.5H452.75V92.5H432.75V112.5ZM432.75 121.25V141.25H452.75V121.25H432.75ZM380.25 121.25H400.25V60H380.25H360.25V121.25H380.25ZM380.25 60V80H397.75V60V40H380.25V60ZM397.75 60H377.75V112.5H397.75H417.75V60H397.75ZM397.75 112.5V132.5H432.75V112.5V92.5H397.75V112.5ZM432.75 112.5H412.75V121.25H432.75H452.75V112.5H432.75ZM432.75 121.25V101.25H380.25V121.25V141.25H432.75V121.25ZM240.25 191.25H220.25V211.25H240.25V191.25ZM240.25 173.75V153.75H220.25V173.75H240.25ZM249 173.75V193.75H269V173.75H249ZM249 165H269V145H249V165ZM240.25 165H220.25V185H240.25V165ZM240.25 156.25H260.25V136.25H240.25V156.25ZM231.5 156.25H211.5V176.25H231.5V156.25ZM231.5 147.5V127.5H211.5V147.5H231.5ZM257.75 147.5V167.5H277.75V147.5H257.75ZM257.75 130V110H237.75V130H257.75ZM266.5 130H286.5V110H266.5V130ZM266.5 147.5H246.5V167.5H266.5V147.5ZM292.75 147.5H312.75V127.5H292.75V147.5ZM292.75 156.25V176.25H312.75V156.25H292.75ZM284 156.25V136.25H264V156.25H284ZM284 165V185H304V165H284ZM275.25 165V145H255.25V165H275.25ZM275.25 173.75H255.25V193.75H275.25V173.75ZM284 173.75H304V153.75H284V173.75ZM284 191.25V211.25H304V191.25H284ZM275.25 191.25H255.25V211.25H275.25V191.25ZM275.25 182.5H295.25V162.5H275.25V182.5ZM266.5 182.5H246.5V202.5H266.5V182.5ZM266.5 173.75H286.5V153.75H266.5V173.75ZM257.75 173.75V153.75H237.75V173.75H257.75ZM257.75 182.5V202.5H277.75V182.5H257.75ZM249 182.5V162.5H229V182.5H249ZM249 191.25V211.25H269V191.25H249ZM240.25 191.25H260.25V173.75H240.25H220.25V191.25H240.25ZM240.25 173.75V193.75H249V173.75V153.75H240.25V173.75ZM249 173.75H269V165H249H229V173.75H249ZM249 165V145H240.25V165V185H249V165ZM240.25 165H260.25V156.25H240.25H220.25V165H240.25ZM240.25 156.25V136.25H231.5V156.25V176.25H240.25V156.25ZM231.5 156.25H251.5V147.5H231.5H211.5V156.25H231.5ZM231.5 147.5V167.5H257.75V147.5V127.5H231.5V147.5ZM257.75 147.5H277.75V130H257.75H237.75V147.5H257.75ZM257.75 130V150H266.5V130V110H257.75V130ZM266.5 130H246.5V147.5H266.5H286.5V130H266.5ZM266.5 147.5V167.5H292.75V147.5V127.5H266.5V147.5ZM292.75 147.5H272.75V156.25H292.75H312.75V147.5H292.75ZM292.75 156.25V136.25H284V156.25V176.25H292.75V156.25ZM284 156.25H264V165H284H304V156.25H284ZM284 165V145H275.25V165V185H284V165ZM275.25 165H255.25V173.75H275.25H295.25V165H275.25ZM275.25 173.75V193.75H284V173.75V153.75H275.25V173.75ZM284 173.75H264V191.25H284H304V173.75H284ZM284 191.25V171.25H275.25V191.25V211.25H284V191.25ZM275.25 191.25H295.25V182.5H275.25H255.25V191.25H275.25ZM275.25 182.5V162.5H266.5V182.5V202.5H275.25V182.5ZM266.5 182.5H286.5V173.75H266.5H246.5V182.5H266.5ZM266.5 173.75V153.75H257.75V173.75V193.75H266.5V173.75ZM257.75 173.75H237.75V182.5H257.75H277.75V173.75H257.75ZM257.75 182.5V162.5H249V182.5V202.5H257.75V182.5ZM249 182.5H229V191.25H249H269V182.5H249ZM249 191.25V171.25H240.25V191.25V211.25H249V191.25ZM100.25 261.25H80.25V281.25H100.25V261.25ZM100.25 252.5H120.25V232.5H100.25V252.5ZM91.5 252.5H71.5V272.5H91.5V252.5ZM91.5 243.75V223.75H71.5V243.75H91.5ZM109 243.75H129V223.75H109V243.75ZM109 252.5H89V272.5H109V252.5ZM135.25 252.5V272.5H155.25V252.5H135.25ZM135.25 235H155.25V215H135.25V235ZM100.25 235H80.25V255H100.25V235ZM100.25 226.25H120.25V206.25H100.25V226.25ZM91.5 226.25H71.5V246.25H91.5V226.25ZM91.5 208.75V188.75H71.5V208.75H91.5ZM100.25 208.75V228.75H120.25V208.75H100.25ZM100.25 200V180H80.25V200H100.25ZM144 200H164V180H144V200ZM144 208.75H124V228.75H144V208.75ZM152.75 208.75H172.75V188.75H152.75V208.75ZM152.75 217.5V237.5H172.75V217.5H152.75ZM135.25 217.5H115.25V237.5H135.25V217.5ZM135.25 208.75H155.25V188.75H135.25V208.75ZM109 208.75V188.75H89V208.75H109ZM109 226.25H89V246.25H109V226.25ZM144 226.25H164V206.25H144V226.25ZM144 235H124V255H144V235ZM152.75 235H172.75V215H152.75V235ZM152.75 252.5V272.5H172.75V252.5H152.75ZM144 252.5V232.5H124V252.5H144ZM144 261.25V281.25H164V261.25H144ZM100.25 261.25H120.25V252.5H100.25H80.25V261.25H100.25ZM100.25 252.5V232.5H91.5V252.5V272.5H100.25V252.5ZM91.5 252.5H111.5V243.75H91.5H71.5V252.5H91.5ZM91.5 243.75V263.75H109V243.75V223.75H91.5V243.75ZM109 243.75H89V252.5H109H129V243.75H109ZM109 252.5V272.5H135.25V252.5V232.5H109V252.5ZM135.25 252.5H155.25V235H135.25H115.25V252.5H135.25ZM135.25 235V215H100.25V235V255H135.25V235ZM100.25 235H120.25V226.25H100.25H80.25V235H100.25ZM100.25 226.25V206.25H91.5V226.25V246.25H100.25V226.25ZM91.5 226.25H111.5V208.75H91.5H71.5V226.25H91.5ZM91.5 208.75V228.75H100.25V208.75V188.75H91.5V208.75ZM100.25 208.75H120.25V200H100.25H80.25V208.75H100.25ZM100.25 200V220H144V200V180H100.25V200ZM144 200H124V208.75H144H164V200H144ZM144 208.75V228.75H152.75V208.75V188.75H144V208.75ZM152.75 208.75H132.75V217.5H152.75H172.75V208.75H152.75ZM152.75 217.5V197.5H135.25V217.5V237.5H152.75V217.5ZM135.25 217.5H155.25V208.75H135.25H115.25V217.5H135.25ZM135.25 208.75V188.75H109V208.75V228.75H135.25V208.75ZM109 208.75H89V226.25H109H129V208.75H109ZM109 226.25V246.25H144V226.25V206.25H109V226.25ZM144 226.25H124V235H144H164V226.25H144ZM144 235V255H152.75V235V215H144V235ZM152.75 235H132.75V252.5H152.75H172.75V235H152.75ZM152.75 252.5V232.5H144V252.5V272.5H152.75V252.5ZM144 252.5H124V261.25H144H164V252.5H144ZM144 261.25V241.25H100.25V261.25V281.25H144V261.25ZM161.5 261.25H141.5V281.25H161.5V261.25ZM161.5 200V180H141.5V200H161.5ZM214 200H234V180H214V200ZM214 208.75H194V228.75H214V208.75ZM222.75 208.75H242.75V188.75H222.75V208.75ZM222.75 235V255H242.75V235H222.75ZM214 235V215H194V235H214ZM214 243.75V263.75H234V243.75H214ZM179 243.75V223.75H159V243.75H179ZM179 261.25V281.25H199V261.25H179ZM179 235H159V255H179V235ZM205.25 235V255H225.25V235H205.25ZM205.25 208.75H225.25V188.75H205.25V208.75ZM179 208.75V188.75H159V208.75H179ZM161.5 261.25H181.5V200H161.5H141.5V261.25H161.5ZM161.5 200V220H214V200V180H161.5V200ZM214 200H194V208.75H214H234V200H214ZM214 208.75V228.75H222.75V208.75V188.75H214V208.75ZM222.75 208.75H202.75V235H222.75H242.75V208.75H222.75ZM222.75 235V215H214V235V255H222.75V235ZM214 235H194V243.75H214H234V235H214ZM214 243.75V223.75H179V243.75V263.75H214V243.75ZM179 243.75H159V261.25H179H199V243.75H179ZM179 261.25V241.25H161.5V261.25V281.25H179V261.25ZM179 235V255H205.25V235V215H179V235ZM205.25 235H225.25V208.75H205.25H185.25V235H205.25ZM205.25 208.75V188.75H179V208.75V228.75H205.25V208.75ZM179 208.75H159V235H179H199V208.75H179ZM231.5 261.25H211.5V281.25H231.5V261.25ZM231.5 200V180H211.5V200H231.5ZM292.75 200H312.75V180H292.75V200ZM292.75 208.75V228.75H312.75V208.75H292.75ZM249 208.75V188.75H229V208.75H249ZM249 226.25H229V246.25H249V226.25ZM284 226.25H304V206.25H284V226.25ZM284 235V255H304V235H284ZM249 235V215H229V235H249ZM249 252.5H229V272.5H249V252.5ZM292.75 252.5H312.75V232.5H292.75V252.5ZM292.75 261.25V281.25H312.75V261.25H292.75ZM231.5 261.25H251.5V200H231.5H211.5V261.25H231.5ZM231.5 200V220H292.75V200V180H231.5V200ZM292.75 200H272.75V208.75H292.75H312.75V200H292.75ZM292.75 208.75V188.75H249V208.75V228.75H292.75V208.75ZM249 208.75H229V226.25H249H269V208.75H249ZM249 226.25V246.25H284V226.25V206.25H249V226.25ZM284 226.25H264V235H284H304V226.25H284ZM284 235V215H249V235V255H284V235ZM249 235H229V252.5H249H269V235H249ZM249 252.5V272.5H292.75V252.5V232.5H249V252.5ZM292.75 252.5H272.75V261.25H292.75H312.75V252.5H292.75ZM292.75 261.25V241.25H231.5V261.25V281.25H292.75V261.25ZM310.25 261.25H290.25V281.25H310.25V261.25ZM310.25 200V180H290.25V200H310.25ZM327.75 200H347.75V180H327.75V200ZM327.75 252.5H307.75V272.5H327.75V252.5ZM362.75 252.5H382.75V232.5H362.75V252.5ZM362.75 261.25V281.25H382.75V261.25H362.75ZM310.25 261.25H330.25V200H310.25H290.25V261.25H310.25ZM310.25 200V220H327.75V200V180H310.25V200ZM327.75 200H307.75V252.5H327.75H347.75V200H327.75ZM327.75 252.5V272.5H362.75V252.5V232.5H327.75V252.5ZM362.75 252.5H342.75V261.25H362.75H382.75V252.5H362.75ZM362.75 261.25V241.25H310.25V261.25V281.25H362.75V261.25ZM380.25 261.25H360.25V281.25H380.25V261.25ZM380.25 200V180H360.25V200H380.25ZM397.75 200H417.75V180H397.75V200ZM397.75 252.5H377.75V272.5H397.75V252.5ZM432.75 252.5H452.75V232.5H432.75V252.5ZM432.75 261.25V281.25H452.75V261.25H432.75ZM380.25 261.25H400.25V200H380.25H360.25V261.25H380.25ZM380.25 200V220H397.75V200V180H380.25V200ZM397.75 200H377.75V252.5H397.75H417.75V200H397.75ZM397.75 252.5V272.5H432.75V252.5V232.5H397.75V252.5ZM432.75 252.5H412.75V261.25H432.75H452.75V252.5H432.75ZM432.75 261.25V241.25H380.25V261.25V281.25H432.75V261.25Z" fill="white" mask="url(#path-1-outside-1_398_20)"/>
</g>
<g filter="url(#filter1_d_398_20)">
<mask id="path-3-outside-2_398_20" maskUnits="userSpaceOnUse" x="85.6562" y="44.0605" width="353" height="224" fill="black">
<rect fill="white" x="85.6562" y="44.0605" width="353" height="224"/>
<path d="M114.5 120.061V112.061H106.5V104.061H122.5V112.061H146.5V96.0605H114.5V88.0605H106.5V72.0605H114.5V64.0605H154.5V72.0605H162.5V80.0605H146.5V72.0605H122.5V88.0605H154.5V96.0605H162.5V112.061H154.5V120.061H114.5ZM170.5 120.061V64.0605H218.5V72.0605H226.5V96.0605H218.5V104.061H186.5V120.061H170.5ZM186.5 96.0605H210.5V72.0605H186.5V96.0605ZM234.5 120.061V64.0605H290.5V72.0605H250.5V88.0605H282.5V96.0605H250.5V112.061H290.5V120.061H234.5ZM306.5 120.061V64.0605H322.5V112.061H354.5V120.061H306.5ZM370.5 120.061V64.0605H386.5V112.061H418.5V120.061H370.5ZM242.5 184.061V168.061H250.5V160.061H242.5V152.061H234.5V144.061H258.5V128.061H266.5V144.061H290.5V152.061H282.5V160.061H274.5V168.061H282.5V184.061H274.5V176.061H266.5V168.061H258.5V176.061H250.5V184.061H242.5ZM114.5 248.061V240.061H106.5V232.061H122.5V240.061H146.5V224.061H114.5V216.061H106.5V200.061H114.5V192.061H154.5V200.061H162.5V208.061H146.5V200.061H122.5V216.061H154.5V224.061H162.5V240.061H154.5V248.061H114.5ZM170.5 248.061V192.061H218.5V200.061H226.5V224.061H218.5V232.061H186.5V248.061H170.5ZM186.5 224.061H210.5V200.061H186.5V224.061ZM234.5 248.061V192.061H290.5V200.061H250.5V216.061H282.5V224.061H250.5V240.061H290.5V248.061H234.5ZM306.5 248.061V192.061H322.5V240.061H354.5V248.061H306.5ZM370.5 248.061V192.061H386.5V240.061H418.5V248.061H370.5Z"/>
</mask>
<path d="M114.5 120.061V112.061H106.5V104.061H122.5V112.061H146.5V96.0605H114.5V88.0605H106.5V72.0605H114.5V64.0605H154.5V72.0605H162.5V80.0605H146.5V72.0605H122.5V88.0605H154.5V96.0605H162.5V112.061H154.5V120.061H114.5ZM170.5 120.061V64.0605H218.5V72.0605H226.5V96.0605H218.5V104.061H186.5V120.061H170.5ZM186.5 96.0605H210.5V72.0605H186.5V96.0605ZM234.5 120.061V64.0605H290.5V72.0605H250.5V88.0605H282.5V96.0605H250.5V112.061H290.5V120.061H234.5ZM306.5 120.061V64.0605H322.5V112.061H354.5V120.061H306.5ZM370.5 120.061V64.0605H386.5V112.061H418.5V120.061H370.5ZM242.5 184.061V168.061H250.5V160.061H242.5V152.061H234.5V144.061H258.5V128.061H266.5V144.061H290.5V152.061H282.5V160.061H274.5V168.061H282.5V184.061H274.5V176.061H266.5V168.061H258.5V176.061H250.5V184.061H242.5ZM114.5 248.061V240.061H106.5V232.061H122.5V240.061H146.5V224.061H114.5V216.061H106.5V200.061H114.5V192.061H154.5V200.061H162.5V208.061H146.5V200.061H122.5V216.061H154.5V224.061H162.5V240.061H154.5V248.061H114.5ZM170.5 248.061V192.061H218.5V200.061H226.5V224.061H218.5V232.061H186.5V248.061H170.5ZM186.5 224.061H210.5V200.061H186.5V224.061ZM234.5 248.061V192.061H290.5V200.061H250.5V216.061H282.5V224.061H250.5V240.061H290.5V248.061H234.5ZM306.5 248.061V192.061H322.5V240.061H354.5V248.061H306.5ZM370.5 248.061V192.061H386.5V240.061H418.5V248.061H370.5Z" fill="#E8E9CD"/>
<path d="M114.5 120.061H94.5V140.061H114.5V120.061ZM114.5 112.061H134.5V92.0605H114.5V112.061ZM106.5 112.061H86.5V132.061H106.5V112.061ZM106.5 104.061V84.0605H86.5V104.061H106.5ZM122.5 104.061H142.5V84.0605H122.5V104.061ZM122.5 112.061H102.5V132.061H122.5V112.061ZM146.5 112.061V132.061H166.5V112.061H146.5ZM146.5 96.0605H166.5V76.0605H146.5V96.0605ZM114.5 96.0605H94.5V116.061H114.5V96.0605ZM114.5 88.0605H134.5V68.0605H114.5V88.0605ZM106.5 88.0605H86.5V108.061H106.5V88.0605ZM106.5 72.0605V52.0605H86.5V72.0605H106.5ZM114.5 72.0605V92.0605H134.5V72.0605H114.5ZM114.5 64.0605V44.0605H94.5V64.0605H114.5ZM154.5 64.0605H174.5V44.0605H154.5V64.0605ZM154.5 72.0605H134.5V92.0605H154.5V72.0605ZM162.5 72.0605H182.5V52.0605H162.5V72.0605ZM162.5 80.0605V100.061H182.5V80.0605H162.5ZM146.5 80.0605H126.5V100.061H146.5V80.0605ZM146.5 72.0605H166.5V52.0605H146.5V72.0605ZM122.5 72.0605V52.0605H102.5V72.0605H122.5ZM122.5 88.0605H102.5V108.061H122.5V88.0605ZM154.5 88.0605H174.5V68.0605H154.5V88.0605ZM154.5 96.0605H134.5V116.061H154.5V96.0605ZM162.5 96.0605H182.5V76.0605H162.5V96.0605ZM162.5 112.061V132.061H182.5V112.061H162.5ZM154.5 112.061V92.0605H134.5V112.061H154.5ZM154.5 120.061V140.061H174.5V120.061H154.5ZM114.5 120.061H134.5V112.061H114.5H94.5V120.061H114.5ZM114.5 112.061V92.0605H106.5V112.061V132.061H114.5V112.061ZM106.5 112.061H126.5V104.061H106.5H86.5V112.061H106.5ZM106.5 104.061V124.061H122.5V104.061V84.0605H106.5V104.061ZM122.5 104.061H102.5V112.061H122.5H142.5V104.061H122.5ZM122.5 112.061V132.061H146.5V112.061V92.0605H122.5V112.061ZM146.5 112.061H166.5V96.0605H146.5H126.5V112.061H146.5ZM146.5 96.0605V76.0605H114.5V96.0605V116.061H146.5V96.0605ZM114.5 96.0605H134.5V88.0605H114.5H94.5V96.0605H114.5ZM114.5 88.0605V68.0605H106.5V88.0605V108.061H114.5V88.0605ZM106.5 88.0605H126.5V72.0605H106.5H86.5V88.0605H106.5ZM106.5 72.0605V92.0605H114.5V72.0605V52.0605H106.5V72.0605ZM114.5 72.0605H134.5V64.0605H114.5H94.5V72.0605H114.5ZM114.5 64.0605V84.0605H154.5V64.0605V44.0605H114.5V64.0605ZM154.5 64.0605H134.5V72.0605H154.5H174.5V64.0605H154.5ZM154.5 72.0605V92.0605H162.5V72.0605V52.0605H154.5V72.0605ZM162.5 72.0605H142.5V80.0605H162.5H182.5V72.0605H162.5ZM162.5 80.0605V60.0605H146.5V80.0605V100.061H162.5V80.0605ZM146.5 80.0605H166.5V72.0605H146.5H126.5V80.0605H146.5ZM146.5 72.0605V52.0605H122.5V72.0605V92.0605H146.5V72.0605ZM122.5 72.0605H102.5V88.0605H122.5H142.5V72.0605H122.5ZM122.5 88.0605V108.061H154.5V88.0605V68.0605H122.5V88.0605ZM154.5 88.0605H134.5V96.0605H154.5H174.5V88.0605H154.5ZM154.5 96.0605V116.061H162.5V96.0605V76.0605H154.5V96.0605ZM162.5 96.0605H142.5V112.061H162.5H182.5V96.0605H162.5ZM162.5 112.061V92.0605H154.5V112.061V132.061H162.5V112.061ZM154.5 112.061H134.5V120.061H154.5H174.5V112.061H154.5ZM154.5 120.061V100.061H114.5V120.061V140.061H154.5V120.061ZM170.5 120.061H150.5V140.061H170.5V120.061ZM170.5 64.0605V44.0605H150.5V64.0605H170.5ZM218.5 64.0605H238.5V44.0605H218.5V64.0605ZM218.5 72.0605H198.5V92.0605H218.5V72.0605ZM226.5 72.0605H246.5V52.0605H226.5V72.0605ZM226.5 96.0605V116.061H246.5V96.0605H226.5ZM218.5 96.0605V76.0605H198.5V96.0605H218.5ZM218.5 104.061V124.061H238.5V104.061H218.5ZM186.5 104.061V84.0605H166.5V104.061H186.5ZM186.5 120.061V140.061H206.5V120.061H186.5ZM186.5 96.0605H166.5V116.061H186.5V96.0605ZM210.5 96.0605V116.061H230.5V96.0605H210.5ZM210.5 72.0605H230.5V52.0605H210.5V72.0605ZM186.5 72.0605V52.0605H166.5V72.0605H186.5ZM170.5 120.061H190.5V64.0605H170.5H150.5V120.061H170.5ZM170.5 64.0605V84.0605H218.5V64.0605V44.0605H170.5V64.0605ZM218.5 64.0605H198.5V72.0605H218.5H238.5V64.0605H218.5ZM218.5 72.0605V92.0605H226.5V72.0605V52.0605H218.5V72.0605ZM226.5 72.0605H206.5V96.0605H226.5H246.5V72.0605H226.5ZM226.5 96.0605V76.0605H218.5V96.0605V116.061H226.5V96.0605ZM218.5 96.0605H198.5V104.061H218.5H238.5V96.0605H218.5ZM218.5 104.061V84.0605H186.5V104.061V124.061H218.5V104.061ZM186.5 104.061H166.5V120.061H186.5H206.5V104.061H186.5ZM186.5 120.061V100.061H170.5V120.061V140.061H186.5V120.061ZM186.5 96.0605V116.061H210.5V96.0605V76.0605H186.5V96.0605ZM210.5 96.0605H230.5V72.0605H210.5H190.5V96.0605H210.5ZM210.5 72.0605V52.0605H186.5V72.0605V92.0605H210.5V72.0605ZM186.5 72.0605H166.5V96.0605H186.5H206.5V72.0605H186.5ZM234.5 120.061H214.5V140.061H234.5V120.061ZM234.5 64.0605V44.0605H214.5V64.0605H234.5ZM290.5 64.0605H310.5V44.0605H290.5V64.0605ZM290.5 72.0605V92.0605H310.5V72.0605H290.5ZM250.5 72.0605V52.0605H230.5V72.0605H250.5ZM250.5 88.0605H230.5V108.061H250.5V88.0605ZM282.5 88.0605H302.5V68.0605H282.5V88.0605ZM282.5 96.0605V116.061H302.5V96.0605H282.5ZM250.5 96.0605V76.0605H230.5V96.0605H250.5ZM250.5 112.061H230.5V132.061H250.5V112.061ZM290.5 112.061H310.5V92.0605H290.5V112.061ZM290.5 120.061V140.061H310.5V120.061H290.5ZM234.5 120.061H254.5V64.0605H234.5H214.5V120.061H234.5ZM234.5 64.0605V84.0605H290.5V64.0605V44.0605H234.5V64.0605ZM290.5 64.0605H270.5V72.0605H290.5H310.5V64.0605H290.5ZM290.5 72.0605V52.0605H250.5V72.0605V92.0605H290.5V72.0605ZM250.5 72.0605H230.5V88.0605H250.5H270.5V72.0605H250.5ZM250.5 88.0605V108.061H282.5V88.0605V68.0605H250.5V88.0605ZM282.5 88.0605H262.5V96.0605H282.5H302.5V88.0605H282.5ZM282.5 96.0605V76.0605H250.5V96.0605V116.061H282.5V96.0605ZM250.5 96.0605H230.5V112.061H250.5H270.5V96.0605H250.5ZM250.5 112.061V132.061H290.5V112.061V92.0605H250.5V112.061ZM290.5 112.061H270.5V120.061H290.5H310.5V112.061H290.5ZM290.5 120.061V100.061H234.5V120.061V140.061H290.5V120.061ZM306.5 120.061H286.5V140.061H306.5V120.061ZM306.5 64.0605V44.0605H286.5V64.0605H306.5ZM322.5 64.0605H342.5V44.0605H322.5V64.0605ZM322.5 112.061H302.5V132.061H322.5V112.061ZM354.5 112.061H374.5V92.0605H354.5V112.061ZM354.5 120.061V140.061H374.5V120.061H354.5ZM306.5 120.061H326.5V64.0605H306.5H286.5V120.061H306.5ZM306.5 64.0605V84.0605H322.5V64.0605V44.0605H306.5V64.0605ZM322.5 64.0605H302.5V112.061H322.5H342.5V64.0605H322.5ZM322.5 112.061V132.061H354.5V112.061V92.0605H322.5V112.061ZM354.5 112.061H334.5V120.061H354.5H374.5V112.061H354.5ZM354.5 120.061V100.061H306.5V120.061V140.061H354.5V120.061ZM370.5 120.061H350.5V140.061H370.5V120.061ZM370.5 64.0605V44.0605H350.5V64.0605H370.5ZM386.5 64.0605H406.5V44.0605H386.5V64.0605ZM386.5 112.061H366.5V132.061H386.5V112.061ZM418.5 112.061H438.5V92.0605H418.5V112.061ZM418.5 120.061V140.061H438.5V120.061H418.5ZM370.5 120.061H390.5V64.0605H370.5H350.5V120.061H370.5ZM370.5 64.0605V84.0605H386.5V64.0605V44.0605H370.5V64.0605ZM386.5 64.0605H366.5V112.061H386.5H406.5V64.0605H386.5ZM386.5 112.061V132.061H418.5V112.061V92.0605H386.5V112.061ZM418.5 112.061H398.5V120.061H418.5H438.5V112.061H418.5ZM418.5 120.061V100.061H370.5V120.061V140.061H418.5V120.061ZM242.5 184.061H222.5V204.061H242.5V184.061ZM242.5 168.061V148.061H222.5V168.061H242.5ZM250.5 168.061V188.061H270.5V168.061H250.5ZM250.5 160.061H270.5V140.061H250.5V160.061ZM242.5 160.061H222.5V180.061H242.5V160.061ZM242.5 152.061H262.5V132.061H242.5V152.061ZM234.5 152.061H214.5V172.061H234.5V152.061ZM234.5 144.061V124.061H214.5V144.061H234.5ZM258.5 144.061V164.061H278.5V144.061H258.5ZM258.5 128.061V108.061H238.5V128.061H258.5ZM266.5 128.061H286.5V108.061H266.5V128.061ZM266.5 144.061H246.5V164.061H266.5V144.061ZM290.5 144.061H310.5V124.061H290.5V144.061ZM290.5 152.061V172.061H310.5V152.061H290.5ZM282.5 152.061V132.061H262.5V152.061H282.5ZM282.5 160.061V180.061H302.5V160.061H282.5ZM274.5 160.061V140.061H254.5V160.061H274.5ZM274.5 168.061H254.5V188.061H274.5V168.061ZM282.5 168.061H302.5V148.061H282.5V168.061ZM282.5 184.061V204.061H302.5V184.061H282.5ZM274.5 184.061H254.5V204.061H274.5V184.061ZM274.5 176.061H294.5V156.061H274.5V176.061ZM266.5 176.061H246.5V196.061H266.5V176.061ZM266.5 168.061H286.5V148.061H266.5V168.061ZM258.5 168.061V148.061H238.5V168.061H258.5ZM258.5 176.061V196.061H278.5V176.061H258.5ZM250.5 176.061V156.061H230.5V176.061H250.5ZM250.5 184.061V204.061H270.5V184.061H250.5ZM242.5 184.061H262.5V168.061H242.5H222.5V184.061H242.5ZM242.5 168.061V188.061H250.5V168.061V148.061H242.5V168.061ZM250.5 168.061H270.5V160.061H250.5H230.5V168.061H250.5ZM250.5 160.061V140.061H242.5V160.061V180.061H250.5V160.061ZM242.5 160.061H262.5V152.061H242.5H222.5V160.061H242.5ZM242.5 152.061V132.061H234.5V152.061V172.061H242.5V152.061ZM234.5 152.061H254.5V144.061H234.5H214.5V152.061H234.5ZM234.5 144.061V164.061H258.5V144.061V124.061H234.5V144.061ZM258.5 144.061H278.5V128.061H258.5H238.5V144.061H258.5ZM258.5 128.061V148.061H266.5V128.061V108.061H258.5V128.061ZM266.5 128.061H246.5V144.061H266.5H286.5V128.061H266.5ZM266.5 144.061V164.061H290.5V144.061V124.061H266.5V144.061ZM290.5 144.061H270.5V152.061H290.5H310.5V144.061H290.5ZM290.5 152.061V132.061H282.5V152.061V172.061H290.5V152.061ZM282.5 152.061H262.5V160.061H282.5H302.5V152.061H282.5ZM282.5 160.061V140.061H274.5V160.061V180.061H282.5V160.061ZM274.5 160.061H254.5V168.061H274.5H294.5V160.061H274.5ZM274.5 168.061V188.061H282.5V168.061V148.061H274.5V168.061ZM282.5 168.061H262.5V184.061H282.5H302.5V168.061H282.5ZM282.5 184.061V164.061H274.5V184.061V204.061H282.5V184.061ZM274.5 184.061H294.5V176.061H274.5H254.5V184.061H274.5ZM274.5 176.061V156.061H266.5V176.061V196.061H274.5V176.061ZM266.5 176.061H286.5V168.061H266.5H246.5V176.061H266.5ZM266.5 168.061V148.061H258.5V168.061V188.061H266.5V168.061ZM258.5 168.061H238.5V176.061H258.5H278.5V168.061H258.5ZM258.5 176.061V156.061H250.5V176.061V196.061H258.5V176.061ZM250.5 176.061H230.5V184.061H250.5H270.5V176.061H250.5ZM250.5 184.061V164.061H242.5V184.061V204.061H250.5V184.061ZM114.5 248.061H94.5V268.061H114.5V248.061ZM114.5 240.061H134.5V220.061H114.5V240.061ZM106.5 240.061H86.5V260.061H106.5V240.061ZM106.5 232.061V212.061H86.5V232.061H106.5ZM122.5 232.061H142.5V212.061H122.5V232.061ZM122.5 240.061H102.5V260.061H122.5V240.061ZM146.5 240.061V260.061H166.5V240.061H146.5ZM146.5 224.061H166.5V204.061H146.5V224.061ZM114.5 224.061H94.5V244.061H114.5V224.061ZM114.5 216.061H134.5V196.061H114.5V216.061ZM106.5 216.061H86.5V236.061H106.5V216.061ZM106.5 200.061V180.061H86.5V200.061H106.5ZM114.5 200.061V220.061H134.5V200.061H114.5ZM114.5 192.061V172.061H94.5V192.061H114.5ZM154.5 192.061H174.5V172.061H154.5V192.061ZM154.5 200.061H134.5V220.061H154.5V200.061ZM162.5 200.061H182.5V180.061H162.5V200.061ZM162.5 208.061V228.061H182.5V208.061H162.5ZM146.5 208.061H126.5V228.061H146.5V208.061ZM146.5 200.061H166.5V180.061H146.5V200.061ZM122.5 200.061V180.061H102.5V200.061H122.5ZM122.5 216.061H102.5V236.061H122.5V216.061ZM154.5 216.061H174.5V196.061H154.5V216.061ZM154.5 224.061H134.5V244.061H154.5V224.061ZM162.5 224.061H182.5V204.061H162.5V224.061ZM162.5 240.061V260.061H182.5V240.061H162.5ZM154.5 240.061V220.061H134.5V240.061H154.5ZM154.5 248.061V268.061H174.5V248.061H154.5ZM114.5 248.061H134.5V240.061H114.5H94.5V248.061H114.5ZM114.5 240.061V220.061H106.5V240.061V260.061H114.5V240.061ZM106.5 240.061H126.5V232.061H106.5H86.5V240.061H106.5ZM106.5 232.061V252.061H122.5V232.061V212.061H106.5V232.061ZM122.5 232.061H102.5V240.061H122.5H142.5V232.061H122.5ZM122.5 240.061V260.061H146.5V240.061V220.061H122.5V240.061ZM146.5 240.061H166.5V224.061H146.5H126.5V240.061H146.5ZM146.5 224.061V204.061H114.5V224.061V244.061H146.5V224.061ZM114.5 224.061H134.5V216.061H114.5H94.5V224.061H114.5ZM114.5 216.061V196.061H106.5V216.061V236.061H114.5V216.061ZM106.5 216.061H126.5V200.061H106.5H86.5V216.061H106.5ZM106.5 200.061V220.061H114.5V200.061V180.061H106.5V200.061ZM114.5 200.061H134.5V192.061H114.5H94.5V200.061H114.5ZM114.5 192.061V212.061H154.5V192.061V172.061H114.5V192.061ZM154.5 192.061H134.5V200.061H154.5H174.5V192.061H154.5ZM154.5 200.061V220.061H162.5V200.061V180.061H154.5V200.061ZM162.5 200.061H142.5V208.061H162.5H182.5V200.061H162.5ZM162.5 208.061V188.061H146.5V208.061V228.061H162.5V208.061ZM146.5 208.061H166.5V200.061H146.5H126.5V208.061H146.5ZM146.5 200.061V180.061H122.5V200.061V220.061H146.5V200.061ZM122.5 200.061H102.5V216.061H122.5H142.5V200.061H122.5ZM122.5 216.061V236.061H154.5V216.061V196.061H122.5V216.061ZM154.5 216.061H134.5V224.061H154.5H174.5V216.061H154.5ZM154.5 224.061V244.061H162.5V224.061V204.061H154.5V224.061ZM162.5 224.061H142.5V240.061H162.5H182.5V224.061H162.5ZM162.5 240.061V220.061H154.5V240.061V260.061H162.5V240.061ZM154.5 240.061H134.5V248.061H154.5H174.5V240.061H154.5ZM154.5 248.061V228.061H114.5V248.061V268.061H154.5V248.061ZM170.5 248.061H150.5V268.061H170.5V248.061ZM170.5 192.061V172.061H150.5V192.061H170.5ZM218.5 192.061H238.5V172.061H218.5V192.061ZM218.5 200.061H198.5V220.061H218.5V200.061ZM226.5 200.061H246.5V180.061H226.5V200.061ZM226.5 224.061V244.061H246.5V224.061H226.5ZM218.5 224.061V204.061H198.5V224.061H218.5ZM218.5 232.061V252.061H238.5V232.061H218.5ZM186.5 232.061V212.061H166.5V232.061H186.5ZM186.5 248.061V268.061H206.5V248.061H186.5ZM186.5 224.061H166.5V244.061H186.5V224.061ZM210.5 224.061V244.061H230.5V224.061H210.5ZM210.5 200.061H230.5V180.061H210.5V200.061ZM186.5 200.061V180.061H166.5V200.061H186.5ZM170.5 248.061H190.5V192.061H170.5H150.5V248.061H170.5ZM170.5 192.061V212.061H218.5V192.061V172.061H170.5V192.061ZM218.5 192.061H198.5V200.061H218.5H238.5V192.061H218.5ZM218.5 200.061V220.061H226.5V200.061V180.061H218.5V200.061ZM226.5 200.061H206.5V224.061H226.5H246.5V200.061H226.5ZM226.5 224.061V204.061H218.5V224.061V244.061H226.5V224.061ZM218.5 224.061H198.5V232.061H218.5H238.5V224.061H218.5ZM218.5 232.061V212.061H186.5V232.061V252.061H218.5V232.061ZM186.5 232.061H166.5V248.061H186.5H206.5V232.061H186.5ZM186.5 248.061V228.061H170.5V248.061V268.061H186.5V248.061ZM186.5 224.061V244.061H210.5V224.061V204.061H186.5V224.061ZM210.5 224.061H230.5V200.061H210.5H190.5V224.061H210.5ZM210.5 200.061V180.061H186.5V200.061V220.061H210.5V200.061ZM186.5 200.061H166.5V224.061H186.5H206.5V200.061H186.5ZM234.5 248.061H214.5V268.061H234.5V248.061ZM234.5 192.061V172.061H214.5V192.061H234.5ZM290.5 192.061H310.5V172.061H290.5V192.061ZM290.5 200.061V220.061H310.5V200.061H290.5ZM250.5 200.061V180.061H230.5V200.061H250.5ZM250.5 216.061H230.5V236.061H250.5V216.061ZM282.5 216.061H302.5V196.061H282.5V216.061ZM282.5 224.061V244.061H302.5V224.061H282.5ZM250.5 224.061V204.061H230.5V224.061H250.5ZM250.5 240.061H230.5V260.061H250.5V240.061ZM290.5 240.061H310.5V220.061H290.5V240.061ZM290.5 248.061V268.061H310.5V248.061H290.5ZM234.5 248.061H254.5V192.061H234.5H214.5V248.061H234.5ZM234.5 192.061V212.061H290.5V192.061V172.061H234.5V192.061ZM290.5 192.061H270.5V200.061H290.5H310.5V192.061H290.5ZM290.5 200.061V180.061H250.5V200.061V220.061H290.5V200.061ZM250.5 200.061H230.5V216.061H250.5H270.5V200.061H250.5ZM250.5 216.061V236.061H282.5V216.061V196.061H250.5V216.061ZM282.5 216.061H262.5V224.061H282.5H302.5V216.061H282.5ZM282.5 224.061V204.061H250.5V224.061V244.061H282.5V224.061ZM250.5 224.061H230.5V240.061H250.5H270.5V224.061H250.5ZM250.5 240.061V260.061H290.5V240.061V220.061H250.5V240.061ZM290.5 240.061H270.5V248.061H290.5H310.5V240.061H290.5ZM290.5 248.061V228.061H234.5V248.061V268.061H290.5V248.061ZM306.5 248.061H286.5V268.061H306.5V248.061ZM306.5 192.061V172.061H286.5V192.061H306.5ZM322.5 192.061H342.5V172.061H322.5V192.061ZM322.5 240.061H302.5V260.061H322.5V240.061ZM354.5 240.061H374.5V220.061H354.5V240.061ZM354.5 248.061V268.061H374.5V248.061H354.5ZM306.5 248.061H326.5V192.061H306.5H286.5V248.061H306.5ZM306.5 192.061V212.061H322.5V192.061V172.061H306.5V192.061ZM322.5 192.061H302.5V240.061H322.5H342.5V192.061H322.5ZM322.5 240.061V260.061H354.5V240.061V220.061H322.5V240.061ZM354.5 240.061H334.5V248.061H354.5H374.5V240.061H354.5ZM354.5 248.061V228.061H306.5V248.061V268.061H354.5V248.061ZM370.5 248.061H350.5V268.061H370.5V248.061ZM370.5 192.061V172.061H350.5V192.061H370.5ZM386.5 192.061H406.5V172.061H386.5V192.061ZM386.5 240.061H366.5V260.061H386.5V240.061ZM418.5 240.061H438.5V220.061H418.5V240.061ZM418.5 248.061V268.061H438.5V248.061H418.5ZM370.5 248.061H390.5V192.061H370.5H350.5V248.061H370.5ZM370.5 192.061V212.061H386.5V192.061V172.061H370.5V192.061ZM386.5 192.061H366.5V240.061H386.5H406.5V192.061H386.5ZM386.5 240.061V260.061H418.5V240.061V220.061H386.5V240.061ZM418.5 240.061H398.5V248.061H418.5H438.5V240.061H418.5ZM418.5 248.061V228.061H370.5V248.061V268.061H418.5V248.061Z" fill="#3E2520" mask="url(#path-3-outside-2_398_20)"/>
</g>
<defs>
<filter id="filter0_d_398_20" x="31.5" y="0" width="461.25" height="321.25" filterUnits="userSpaceOnUse" color-interpolation-filters="sRGB">
<feFlood flood-opacity="0" result="BackgroundImageFix"/>
<feColorMatrix in="SourceAlpha" type="matrix" values="0 0 0 0 0 0 0 0 0 0 0 0 0 0 0 0 0 0 127 0" result="hardAlpha"/>
<feOffset/>
<feGaussianBlur stdDeviation="20"/>
<feComposite in2="hardAlpha" operator="out"/>
<feColorMatrix type="matrix" values="0 0 0 0 1 0 0 0 0 1 0 0 0 0 1 0 0 0 0.41 0"/>
<feBlend mode="normal" in2="BackgroundImageFix" result="effect1_dropShadow_398_20"/>
<feBlend mode="normal" in="SourceGraphic" in2="effect1_dropShadow_398_20" result="shape"/>
</filter>
<filter id="filter1_d_398_20" x="82.5" y="40.0605" width="360" height="232" filterUnits="userSpaceOnUse" color-interpolation-filters="sRGB">
<feFlood flood-opacity="0" result="BackgroundImageFix"/>
<feColorMatrix in="SourceAlpha" type="matrix" values="0 0 0 0 0 0 0 0 0 0 0 0 0 0 0 0 0 0 127 0" result="hardAlpha"/>
<feOffset/>
<feGaussianBlur stdDeviation="2"/>
<feComposite in2="hardAlpha" operator="out"/>
<feColorMatrix type="matrix" values="0 0 0 0 0 0 0 0 0 0 0 0 0 0 0 0 0 0 1 0"/>
<feBlend mode="normal" in2="BackgroundImageFix" result="effect1_dropShadow_398_20"/>
<feBlend mode="normal" in="SourceGraphic" in2="effect1_dropShadow_398_20" result="shape"/>
</filter>
</defs>
</svg>
