<svg width="47" height="47" viewBox="0 0 47 47" fill="none" xmlns="http://www.w3.org/2000/svg">
<path d="M13.2188 4.40625H14.6875C15.4953 4.40625 16.1562 5.06719 16.1562 5.875V7.97531C16.1562 8.43062 15.7744 8.8125 15.3191 8.8125H13.2188C12.4109 8.8125 11.75 8.15156 11.75 7.34375V5.875C11.75 5.06719 12.4109 4.40625 13.2188 4.40625ZM17.6103 42.6378H19.0938C19.9016 42.6378 20.5625 41.9769 20.5625 41.1691V39.7003C20.5625 38.8925 19.9016 38.2316 19.0938 38.2316H15.5247C15.0694 38.2316 14.6875 38.6134 14.6875 39.0688V39.715C14.6875 41.3306 15.9947 42.6378 17.6103 42.6378ZM26.4375 39.7003V41.1691C26.4375 41.9769 27.0984 42.6378 27.9062 42.6378H29.4191C31.02 42.6378 32.3125 41.3453 32.3125 39.7444V39.0688C32.3125 38.8467 32.2243 38.6338 32.0673 38.4768C31.9103 38.3198 31.6973 38.2316 31.4753 38.2316H27.9062C27.0984 38.2316 26.4375 38.8925 26.4375 39.7003ZM35.25 7.34375V5.875C35.25 5.06719 34.5891 4.40625 33.7812 4.40625H32.3125C31.5047 4.40625 30.8438 5.06719 30.8438 5.875V7.97531C30.8438 8.43062 31.2256 8.8125 31.6809 8.8125H33.7812C34.5891 8.8125 35.25 8.15156 35.25 7.34375ZM41.125 16.2003C41.125 15.3925 41.7859 14.7316 42.5938 14.7316C43.4016 14.7316 44.0625 15.3925 44.0625 16.2003V22.0753C44.0625 22.8831 43.4016 23.5441 42.5938 23.5441H41.9622C41.7402 23.5441 41.5272 23.6323 41.3702 23.7893C41.2132 23.9463 41.125 24.1592 41.125 24.3813V25.0569C41.125 26.6578 39.8325 27.9503 38.2316 27.9503H37.5559C37.3339 27.9503 37.121 28.0385 36.964 28.1955C36.807 28.3525 36.7188 28.5655 36.7188 28.7875V35.3088C36.7188 36.9244 35.4116 38.2316 33.7959 38.2316H33.1497C32.9277 38.2316 32.7147 38.1434 32.5577 37.9864C32.4007 37.8294 32.3125 37.6164 32.3125 37.3944V33.1938C32.3125 32.9717 32.2243 32.7588 32.0673 32.6018C31.9103 32.4448 31.6973 32.3566 31.4753 32.3566H15.5247C15.3027 32.3566 15.0897 32.4448 14.9327 32.6018C14.7757 32.7588 14.6875 32.9717 14.6875 33.1938V37.3944C14.6875 37.8497 14.3203 38.2316 13.8503 38.2316H13.2188C11.6031 38.2316 10.2812 36.9097 10.2812 35.2941V28.7875C10.2812 28.3322 9.89937 27.9503 9.44406 27.9503H8.8125C7.19688 27.9503 5.875 26.6284 5.875 25.0128V24.3813C5.875 23.9259 5.49313 23.5441 5.03781 23.5441H4.40625C3.59844 23.5441 2.9375 22.8831 2.9375 22.0753V16.2003C2.9375 15.3925 3.59844 14.7316 4.40625 14.7316H4.45031C5.25813 14.7316 5.91906 15.3925 5.91906 16.2003V18.3006C5.91906 18.7706 6.28625 19.1378 6.75625 19.1378L9.4 19.1231C9.84063 19.1084 10.2225 18.8 10.2812 18.3741C10.6337 15.7156 12.7928 13.6447 15.4659 13.3069C15.8625 13.2628 16.1562 12.8956 16.1562 12.4844V9.64969C16.1562 9.19438 16.5381 8.8125 17.0081 8.8125H17.4488C19.1672 8.8125 20.5625 10.2078 20.5625 11.9262V12.4256C20.5625 12.8956 20.9444 13.2628 21.3997 13.2628H25.6003C26.0556 13.2628 26.4375 12.8956 26.4375 12.4256V11.8528C26.4375 10.1784 27.8034 8.8125 29.4778 8.8125H30.0066C30.4619 8.8125 30.8438 9.19438 30.8438 9.64969V12.4844C30.8438 12.8956 31.1375 13.2628 31.5341 13.3069C34.2072 13.63 36.3369 15.7156 36.6747 18.3888C36.7334 18.8294 37.1153 19.1378 37.5559 19.1378H40.2878C40.7431 19.1378 41.125 18.7706 41.125 18.3006V16.2003ZM16.1562 24.9688C16.3514 24.9688 16.5445 24.9299 16.7245 24.8545C16.9044 24.779 17.0675 24.6685 17.2043 24.5293C17.341 24.3901 17.4486 24.225 17.5209 24.0438C17.5931 23.8625 17.6285 23.6687 17.625 23.4736V20.5889C17.625 19.7591 16.9699 19.0938 16.1562 19.0938C15.3411 19.0938 14.6875 19.7591 14.6875 20.5889V23.4736C14.6875 24.3034 15.3411 24.9688 16.1562 24.9688ZM29.375 23.4736C29.375 24.3034 30.0286 24.9688 30.8438 24.9688C31.6589 24.9688 32.3125 24.2887 32.3125 23.4736V20.5889C32.3125 19.7591 31.6589 19.0938 30.8438 19.0938C30.0286 19.0938 29.375 19.7591 29.375 20.5889V23.4736Z" fill="black"/>
</svg>
