<svg width="37" height="37" viewBox="0 0 37 37" fill="none" xmlns="http://www.w3.org/2000/svg">
<g clip-path="url(#clip0_245_27)">
<path d="M35.2425 10.5681H33.4734V7.04156H31.7159V5.28406H29.9469V3.52656H26.4319V1.7575H22.9053V0H14.0947V1.7575H10.5681V3.52656H7.04156V5.28406H5.28406V7.04156H3.52656V10.5681H1.7575V14.0947H0V22.9053H1.7575V26.4319H3.52656V29.9469H5.28406V31.7159H7.04156V33.4734H10.5681V35.2425H14.0947V37H22.9053V35.2425H26.4319V33.4734H29.9469V31.7159H31.7159V29.9469H33.4734V26.4319H35.2425V22.9053H37V14.0947H35.2425V10.5681ZM22.9053 29.9469H21.1478V31.7159H15.8522V29.9469H14.0947V24.6628H15.8522V22.9053H21.1478V24.6628H22.9053V29.9469ZM28.1894 14.0947H26.4319V15.8522H24.6628V17.6212H22.9053V19.3788H21.1478V21.1478H15.8522V17.6212H17.6212V15.8522H19.3788V14.0947H21.1478V10.5681H19.3788V8.81062H15.8522V10.5681H14.0947V14.0947H8.81062V8.81062H10.5681V7.04156H12.3372V5.28406H14.0947V3.52656H22.9053V5.28406H24.6628V7.04156H26.4319V8.81062H28.1894V14.0947Z" fill="black"/>
</g>
<defs>
<clipPath id="clip0_245_27">
<rect width="37" height="37" fill="white"/>
</clipPath>
</defs>
</svg>
