<svg width="63" height="63" viewBox="0 0 63 63" fill="none" xmlns="http://www.w3.org/2000/svg">
<path d="M18.5011 35.1908L27.7805 44.4727L24.0713 48.1845L27.7857 51.8989L24.074 55.6106L17.5771 49.1137L10.151 56.5399L6.43921 52.8281L13.8653 45.3994L7.36846 38.9051L11.0802 35.1934L14.792 38.9025L18.5011 35.1908ZM7.87508 7.875L17.1833 7.88288L48.203 38.9051L51.9173 35.1934L55.6317 38.9051L49.1348 45.402L56.5583 52.8281L52.8466 56.5399L45.4205 49.1137L38.9262 55.6106L35.2118 51.8989L38.9236 48.1845L7.88033 17.1439L7.87508 7.875ZM45.8247 7.875L55.1251 7.88288L55.1303 17.1307L44.4912 27.7673L35.2092 18.4879L45.8247 7.875Z" fill="black"/>
</svg>
